<?xml version="1.0" encoding="utf-8"?>
<svg xmlns="http://www.w3.org/2000/svg" height="400" width="400" viewBox="0 0 400 400">
  <g>
    <path id="path1" transform="rotate(0,200,200) translate(62,62) scale(8.625,8.625)  " fill="#FFFFFF" d="M8,26L14,26C14.552001,26 15,26.447001 15,27.000001 15,27.553 14.552001,28.000001 14,28.000001L8,28.000001C7.4480002,28.000001 7.0000002,27.553 7.0000005,27.000001 7.0000002,26.447001 7.4480002,26 8,26z M8,22L14,22C14.552001,22 15,22.447001 15,23 15,23.553 14.552001,24 14,24L8,24C7.4480002,24 7.0000002,23.553 7.0000005,23 7.0000002,22.447001 7.4480002,22 8,22z M23.990978,19.422026C24.542978,19.422026,24.990978,19.869024,24.990978,20.422024L24.990978,25.224304 26.248586,24.223603C26.680591,23.879572 27.3106,23.949578 27.654605,24.382618 27.998609,24.814657 27.926609,25.443714 27.494604,25.787745L23.988555,28.579999 20.50251,25.785746C20.071503,25.439713 20.002503,24.810657 20.347507,24.380618 20.693511,23.947578 21.322521,23.879572 21.753526,24.225604L22.990978,25.216638 22.990978,20.422024C22.990978,19.869024,23.438978,19.422026,23.990978,19.422026z M24,18C20.691,18 18,20.691 18,24 18,27.309001 20.691,30.000001 24,30.000001 27.309,30.000001 30,27.309001 30,24 30,20.691 27.309,18 24,18z M24,16C28.411001,16 32,19.589001 32,24 32,28.411 28.411001,32.000001 24,32.000001 19.589,32.000001 16,28.411 16,24 16,19.589001 19.589,16 24,16z M11.703977,12.842004C9.6729703,12.842005,8.0679898,14.144979,7.6419644,16.000016L15.766965,16.000016C15.34094,14.144979,13.73596,12.842005,11.703977,12.842004z M11.70501,6.5260105C10.626019,6.5260105 9.7480259,7.4000111 9.7480259,8.4730117 9.7480259,9.5470122 10.626019,10.422013 11.70501,10.422013 12.784002,10.422013 13.661994,9.5470122 13.661994,8.4730117 13.661994,7.4000111 12.784002,6.5260105 11.70501,6.5260105z M11.70501,4.5260096C13.886993,4.5260096 15.661979,6.2970104 15.661979,8.4730117 15.661979,9.6295435 15.161031,10.671774 14.364241,11.394743L14.343559,11.412631 14.404055,11.440383C16.477984,12.422745,17.879026,14.518174,17.879026,17.000013L17.879026,18.00001 5.5300259,18.00001 5.5300259,17.000013C5.5300255,14.518174,6.9310048,12.422745,9.0045352,11.440383L9.0659623,11.412198 9.0457797,11.394743C8.2489898,10.671774 7.7480416,9.6295435 7.7480416,8.4730117 7.7480416,6.2970104 9.5230277,4.5260096 11.70501,4.5260096z M0,0L24,0 24,14 22,14 22,2 2.0000002,2 2.0000002,30.000001 17,30.000001 17,32.000001 0,32.000001z" />
  </g>
</svg>

