<?xml version="1.0" encoding="utf-8"?>
<svg xmlns="http://www.w3.org/2000/svg" height="400" width="400" viewBox="0 0 400 400">
  <g>
    <path id="path1" transform="rotate(0,200,200) translate(87.875,62) scale(8.625,8.625)  " fill="#FFFFFF" d="M11,26L11,30 15.001,30 15,26z M19,19L22,19 22,22 19,22z M14,19L17,19 17,22 14,22z M9,19L12,19 12,22 9,22z M4,19L7,19 7,22 4,22z M19,14L22,14 22,17 19,17z M14,14L17,14 17,17 14,17z M9,14L12,14 12,17 9,17z M4,14L7,14 7,17 4,17z M2,9L2,30 9,30 9,26C9,24.896999,9.8970003,24,11,24L15,24C16.103001,24,17,24.896999,17,26L17,30 24,30 24,9 20,9 20,10C20,11.103,19.103001,12,18,12L8,12C6.8969998,12,6,11.103,6,10L6,9z M12,3L14,3 14,5 16,5 16,7 14,7 14,9 12,9 12,7 10,7 10,5 12,5z M8,2L8,10 18.000999,10 18,2z M8,0L18,0C19.103001,0,20,0.89699984,20,2L20,7 24,7C25.103027,7,26,7.8970032,26,9L26,30C26,31.102997,25.103027,32,24,32L15,32 11,32 2,32C0.89697266,32,0,31.102997,0,30L0,9C0,7.8970032,0.89697266,7,2,7L6,7 6,2C6,0.89699984,6.8969998,0,8,0z" />
  </g>
</svg>

